<svg width="40" height="40" viewBox="0 0 40 40" fill="none" xmlns="http://www.w3.org/2000/svg">
<path d="M26.9833 3.33301H13.0167C6.94999 3.33301 3.33333 6.94967 3.33333 13.0163V26.9663C3.33333 33.0497 6.94999 36.6663 13.0167 36.6663H26.9667C33.0333 36.6663 36.65 33.0497 36.65 26.983V13.0163C36.6667 6.94967 33.05 3.33301 26.9833 3.33301ZM28.0333 18.033C27.55 18.5163 26.75 18.5163 26.2667 18.033L21.25 13.0163V29.9997C21.25 30.683 20.6833 31.2497 20 31.2497C19.3167 31.2497 18.75 30.683 18.75 29.9997V13.0163L13.7333 18.033C13.25 18.5163 12.45 18.5163 11.9667 18.033C11.85 17.9175 11.7574 17.7799 11.6945 17.6282C11.6315 17.4766 11.5994 17.3139 11.6 17.1497C11.6 16.833 11.7333 16.4997 11.9667 16.2663L19.1167 9.11634C19.351 8.88226 19.6687 8.75077 20 8.75077C20.3312 8.75077 20.649 8.88226 20.8833 9.11634L28.0333 16.2663C28.5167 16.7497 28.5167 17.533 28.0333 18.033Z" fill="#F9AA01"/>
</svg>
