<svg width="40" height="40" viewBox="0 0 40 40" fill="none" xmlns="http://www.w3.org/2000/svg">
<path d="M34.6296 5C35.6119 5 36.554 5.39021 37.2485 6.08479C37.9431 6.77937 38.3333 7.72142 38.3333 8.7037V34.6296C38.3333 35.6119 37.9431 36.554 37.2485 37.2485C36.554 37.9431 35.6119 38.3333 34.6296 38.3333H8.7037C7.72142 38.3333 6.77937 37.9431 6.08479 37.2485C5.39021 36.554 5 35.6119 5 34.6296V8.7037C5 7.72142 5.39021 6.77937 6.08479 6.08479C6.77937 5.39021 7.72142 5 8.7037 5H34.6296ZM33.7037 33.7037V23.8889C33.7037 22.2878 33.0677 20.7522 31.9355 19.6201C30.8033 18.4879 29.2678 17.8519 27.6667 17.8519C26.0926 17.8519 24.2593 18.8148 23.3704 20.2593V18.2037H18.2037V33.7037H23.3704V24.5741C23.3704 23.1481 24.5185 21.9815 25.9444 21.9815C26.632 21.9815 27.2915 22.2546 27.7777 22.7408C28.2639 23.227 28.537 23.8865 28.537 24.5741V33.7037H33.7037ZM12.1852 15.2963C13.0103 15.2963 13.8016 14.9685 14.3851 14.3851C14.9685 13.8016 15.2963 13.0103 15.2963 12.1852C15.2963 10.463 13.9074 9.05556 12.1852 9.05556C11.3552 9.05556 10.5591 9.38528 9.9722 9.9722C9.38528 10.5591 9.05556 11.3552 9.05556 12.1852C9.05556 13.9074 10.463 15.2963 12.1852 15.2963ZM14.7593 33.7037V18.2037H9.62963V33.7037H14.7593Z" fill="#F9AA01"/>
</svg>
