<svg width="16" height="17" viewBox="0 0 16 17" fill="none" xmlns="http://www.w3.org/2000/svg">
<path d="M2.41667 16.9167C2.00001 16.9167 1.64584 16.7709 1.35417 16.4792C1.06251 16.1876 0.916672 15.8334 0.916672 15.4167V5.91675C0.916672 5.50008 1.06251 5.14591 1.35417 4.85425C1.64584 4.56258 2.00001 4.41675 2.41667 4.41675H4.25001C4.25001 3.37508 4.61445 2.48953 5.34334 1.76008C6.07278 1.03119 6.95834 0.666748 8 0.666748C9.04167 0.666748 9.92723 1.03119 10.6567 1.76008C11.3856 2.48953 11.75 3.37508 11.75 4.41675H13.5833C14 4.41675 14.3542 4.56258 14.6458 4.85425C14.9375 5.14591 15.0833 5.50008 15.0833 5.91675V15.4167C15.0833 15.8334 14.9375 16.1876 14.6458 16.4792C14.3542 16.7709 14 16.9167 13.5833 16.9167H2.41667ZM2.41667 15.6667H13.5833C13.6389 15.6667 13.6944 15.639 13.75 15.5834C13.8056 15.5279 13.8333 15.4723 13.8333 15.4167V5.91675C13.8333 5.86119 13.8056 5.80564 13.75 5.75008C13.6944 5.69453 13.6389 5.66675 13.5833 5.66675H2.41667C2.36112 5.66675 2.30556 5.69453 2.25001 5.75008C2.19445 5.80564 2.16667 5.86119 2.16667 5.91675V15.4167C2.16667 15.4723 2.19445 15.5279 2.25001 15.5834C2.30556 15.639 2.36112 15.6667 2.41667 15.6667ZM8 10.2501C9.04167 10.2501 9.92723 9.88564 10.6567 9.15675C11.3856 8.4273 11.75 7.54175 11.75 6.50008H10.5C10.5 7.19453 10.2569 7.7848 9.77084 8.27091C9.28473 8.75703 8.69445 9.00008 8 9.00008C7.30556 9.00008 6.71528 8.75703 6.22917 8.27091C5.74306 7.7848 5.5 7.19453 5.5 6.50008H4.25001C4.25001 7.54175 4.61445 8.4273 5.34334 9.15675C6.07278 9.88564 6.95834 10.2501 8 10.2501ZM5.5 4.41675H10.5C10.5 3.7223 10.2569 3.13203 9.77084 2.64591C9.28473 2.1598 8.69445 1.91675 8 1.91675C7.30556 1.91675 6.71528 2.1598 6.22917 2.64591C5.74306 3.13203 5.5 3.7223 5.5 4.41675Z" fill="#F9AA01"/>
</svg>
