<svg width="31" height="30" viewBox="0 0 31 30" fill="none" xmlns="http://www.w3.org/2000/svg">
<path d="M8.04667 17.5C7.35184 17.5 6.75723 17.255 6.26284 16.765C5.76762 16.2758 5.52 15.6875 5.52 15C5.52 14.3125 5.76762 13.7237 6.26284 13.2337C6.75723 12.7446 7.35184 12.5 8.04667 12.5C8.7415 12.5 9.33611 12.7446 9.83049 13.2337C10.3257 13.7237 10.5733 14.3125 10.5733 15C10.5733 15.6875 10.3257 16.2758 9.83049 16.765C9.33611 17.255 8.7415 17.5 8.04667 17.5ZM15.6267 17.5C14.9318 17.5 14.3372 17.255 13.8428 16.765C13.3476 16.2758 13.1 15.6875 13.1 15C13.1 14.3125 13.3476 13.7237 13.8428 13.2337C14.3372 12.7446 14.9318 12.5 15.6267 12.5C16.3215 12.5 16.9165 12.7446 17.4118 13.2337C17.9061 13.7237 18.1533 14.3125 18.1533 15C18.1533 15.6875 17.9061 16.2758 17.4118 16.765C16.9165 17.255 16.3215 17.5 15.6267 17.5ZM23.2067 17.5C22.5118 17.5 21.9168 17.255 21.4216 16.765C20.9272 16.2758 20.68 15.6875 20.68 15C20.68 14.3125 20.9272 13.7237 21.4216 13.2337C21.9168 12.7446 22.5118 12.5 23.2067 12.5C23.9015 12.5 24.4965 12.7446 24.9917 13.2337C25.4861 13.7237 25.7333 14.3125 25.7333 15C25.7333 15.6875 25.4861 16.2758 24.9917 16.765C24.4965 17.255 23.9015 17.5 23.2067 17.5Z" fill="white"/>
</svg>
