<svg width="24" height="24" viewBox="0 0 24 24" fill="none" xmlns="http://www.w3.org/2000/svg">
<path d="M20.7778 3C21.3671 3 21.9324 3.23413 22.3491 3.65087C22.7659 4.06762 23 4.63285 23 5.22222V20.7778C23 21.3671 22.7659 21.9324 22.3491 22.3491C21.9324 22.7659 21.3671 23 20.7778 23H5.22222C4.63285 23 4.06762 22.7659 3.65087 22.3491C3.23413 21.9324 3 21.3671 3 20.7778V5.22222C3 4.63285 3.23413 4.06762 3.65087 3.65087C4.06762 3.23413 4.63285 3 5.22222 3H20.7778ZM20.2222 20.2222V14.3333C20.2222 13.3727 19.8406 12.4513 19.1613 11.772C18.482 11.0927 17.5607 10.7111 16.6 10.7111C15.6556 10.7111 14.5556 11.2889 14.0222 12.1556V10.9222H10.9222V20.2222H14.0222V14.7444C14.0222 13.8889 14.7111 13.1889 15.5667 13.1889C15.9792 13.1889 16.3749 13.3528 16.6666 13.6445C16.9583 13.9362 17.1222 14.3319 17.1222 14.7444V20.2222H20.2222ZM7.31111 9.17778C7.80618 9.17778 8.28098 8.98111 8.63104 8.63104C8.98111 8.28098 9.17778 7.80618 9.17778 7.31111C9.17778 6.27778 8.34444 5.43333 7.31111 5.43333C6.81309 5.43333 6.33547 5.63117 5.98332 5.98332C5.63117 6.33547 5.43333 6.81309 5.43333 7.31111C5.43333 8.34444 6.27778 9.17778 7.31111 9.17778ZM8.85556 20.2222V10.9222H5.77778V20.2222H8.85556Z" fill="white"/>
</svg>
